<svg data-v-1084b650="" xmlns="http://www.w3.org/2000/svg" viewBox="0 0 300 300"><!----> <!----> <rect data-v-1084b650="" fill="#ffffff" x="0" y="0" width="300px" height="300px" class="logo-background-square"></rect> <!----> <g data-v-1084b650="" id="bebc8f2a-f68f-c7cb-230e-ef38193a6320" fill="#2e3034" transform="matrix(4.299999999999999,0,0,4.299999999999999,105.113076376915,120.63099920749664)"><path d="M3.81 1.93L3.81 1.93L3.81 1.93Q5.87 1.93 6.39 3.22L6.39 3.22L6.39 3.22Q6.55 3.53 6.55 3.63L6.55 3.63L5.69 3.63L5.69 3.89L6.62 3.89L6.62 3.88L6.62 3.88Q6.62 3.81 6.55 3.63L6.55 3.63L8.13 3.63L8.13 3.89L6.63 3.89L6.63 3.91L6.63 3.91Q6.75 4.46 6.79 5.09L6.79 5.09L6.79 5.09Q6.79 5.13 5.00 5.22L5.00 5.22L5.00 5.21L5.00 5.21Q5.00 3.58 3.88 3.58L3.88 3.58L3.68 3.58L3.68 3.58Q2.84 3.58 2.66 4.29L2.66 4.29L2.66 4.29Q2.52 4.89 2.52 5.87L2.52 5.87L2.52 7.21L2.50 7.40L1.87 7.40L1.87 7.71L2.50 7.71L2.50 10.08L5.13 10.08L5.13 7.62L6.64 7.62L6.64 10.08L5.80 10.08L5.80 11.60L4.05 11.60L4.05 11.73L2.68 11.73L2.68 11.60L1.29 11.60L1.29 10.84L2.21 10.84L2.21 10.51L0.83 10.51L0.83 9.39L0.24 9.39L0.24 8.00L0.55 8.00L0.55 8.00Q0.53 7.16 0.53 6.66L0.53 6.66L0.53 6.66Q0.53 4.42 0.75 3.84L0.75 3.84L0.75 3.84Q0.96 3.17 1.41 2.69L1.41 2.69L1.41 2.69Q2.21 1.93 3.81 1.93ZM7.72 1.93L7.72 1.93L9.56 1.93L9.56 1.93Q9.59 1.94 9.59 1.97L9.59 1.97L9.59 6.73L9.59 6.73Q9.59 6.76 9.56 6.76L9.56 6.76L9.34 6.76L9.34 11.70L9.34 11.70Q9.34 11.73 9.31 11.73L9.31 11.73L7.72 11.73L7.72 11.73Q7.68 11.73 7.68 11.70L7.68 11.70L7.68 6.64L7.19 6.64L7.19 6.64Q7.16 6.64 7.16 6.61L7.16 6.61L7.16 6.40L7.16 6.40Q7.16 6.36 7.19 6.36L7.19 6.36L7.68 6.36L7.68 1.97L7.68 1.97Q7.69 1.93 7.72 1.93ZM8.64 6.36L7.70 6.36L7.70 6.64L8.64 6.64L8.64 6.36ZM13.71 1.93L13.71 1.93L13.71 1.93Q15.76 1.93 16.28 3.22L16.28 3.22L16.28 3.22Q16.44 3.53 16.44 3.63L16.44 3.63L15.58 3.63L15.58 3.89L16.51 3.89L16.51 3.88L16.51 3.88Q16.51 3.81 16.44 3.63L16.44 3.63L18.02 3.63L18.02 3.89L16.52 3.89L16.52 3.91L16.52 3.91Q16.64 4.46 16.69 5.09L16.69 5.09L16.69 5.09Q16.69 5.13 14.89 5.22L14.89 5.22L14.89 5.21L14.89 5.21Q14.89 3.58 13.77 3.58L13.77 3.58L13.57 3.58L13.57 3.58Q12.74 3.58 12.55 4.29L12.55 4.29L12.55 4.29Q12.41 4.89 12.41 5.87L12.41 5.87L12.41 7.21L12.39 7.40L11.76 7.40L11.76 7.71L12.39 7.71L12.39 10.08L15.02 10.08L15.02 7.62L16.54 7.62L16.54 10.08L15.70 10.08L15.70 11.60L13.94 11.60L13.94 11.73L12.57 11.73L12.57 11.60L11.18 11.60L11.18 10.84L12.11 10.84L12.11 10.51L10.72 10.51L10.72 9.39L10.13 9.39L10.13 8.00L10.45 8.00L10.45 8.00Q10.42 7.16 10.42 6.66L10.42 6.66L10.42 6.66Q10.42 4.42 10.64 3.84L10.64 3.84L10.64 3.84Q10.85 3.17 11.30 2.69L11.30 2.69L11.30 2.69Q12.11 1.93 13.71 1.93ZM18.45 7.57L20.13 1.96L21.78 1.96L21.78 1.96Q21.81 2.10 23.38 7.29L23.38 7.29L23.68 7.29L23.68 10.51L23.00 10.51L23.00 10.76L23.68 10.76L23.68 11.45L21.86 11.45L21.86 9.47L19.64 9.47L19.64 10.32L18.73 10.32L18.73 11.73L17.08 11.73L17.08 11.63L17.21 11.63L17.21 10.32L17.89 10.32L17.89 7.57L18.45 7.57ZM20.94 4.71L20.90 4.71L20.90 4.72L20.90 4.72Q20.69 5.89 20.08 8.40L20.08 8.40L21.62 8.40L21.62 7.29L21.49 7.29L21.49 7.29Q20.94 4.92 20.94 4.71L20.94 4.71ZM16.60 7.57L16.60 7.28L17.89 7.28L17.89 7.57L16.60 7.57ZM21.86 11.73L21.86 11.57L24.06 11.57L24.06 11.73L21.86 11.73ZM24.25 6.62L24.25 1.96L27.23 1.96L27.23 1.96Q29.09 1.96 29.79 3.22L29.79 3.22L29.79 3.22Q30.39 4.20 30.39 6.49L30.39 6.49L30.69 6.49L30.69 8.83L27.79 8.83L27.79 8.56L28.70 8.56L28.70 6.49L28.43 6.49L28.43 5.63L28.43 5.63Q28.43 4.19 27.79 3.79L27.79 3.79L27.79 3.79Q27.41 3.58 26.58 3.58L26.58 3.58L26.17 3.58L26.17 6.44L26.45 6.44L26.45 8.83L24.49 8.83L24.49 6.62L24.25 6.62ZM23.39 9.13L23.39 8.83L24.27 8.83L24.27 9.13L26.45 9.13L26.45 9.78L27.79 9.78L27.79 9.13L30.69 9.13L30.69 9.78L28.70 9.78L28.70 11.52L26.45 11.52L26.45 11.73L24.29 11.73L24.29 11.73Q24.25 11.73 24.25 11.70L24.25 11.70L24.25 9.13L23.39 9.13ZM26.45 9.13L26.45 8.83L27.79 8.83L27.79 9.13L26.45 9.13ZM30.69 9.13L30.69 8.83L32.61 8.83L32.61 9.13L30.69 9.13ZM32.29 7.57L33.97 1.96L35.62 1.96L35.62 1.96Q35.65 2.10 37.21 7.29L37.21 7.29L37.52 7.29L37.52 10.51L36.84 10.51L36.84 10.76L37.52 10.76L37.52 11.45L35.70 11.45L35.70 9.47L33.48 9.47L33.48 10.32L32.57 10.32L32.57 11.73L30.92 11.73L30.92 11.63L31.05 11.63L31.05 10.32L31.73 10.32L31.73 7.57L32.29 7.57ZM34.77 4.71L34.74 4.71L34.74 4.72L34.74 4.72Q34.53 5.89 33.92 8.40L33.92 8.40L35.45 8.40L35.45 7.29L35.32 7.29L35.32 7.29Q34.77 4.92 34.77 4.71L34.77 4.71ZM30.44 7.57L30.44 7.28L31.73 7.28L31.73 7.57L30.44 7.57ZM35.70 11.73L35.70 11.57L37.89 11.57L37.89 11.73L35.70 11.73Z"></path></g> <!----> <g data-v-1084b650="" id="1b20c7c7-d002-51d1-310d-f88c925a1d98" stroke="none" fill="#488eff" transform="matrix(0.3069766094423463,0,0,0.3069766094423463,20.63823287516602,103.62328717097759)"><svg xmlns="http://www.w3.org/2000/svg" viewBox="0 0 100 100" x="0px" y="0px"><defs><style>.cls-1{fill:#111;}</style></defs><title>Origami icon_cicada</title><g data-name="Layer 2"><path class="cls-1" d="M51.28,52.64a.67.67,0,0,1-.28-.06h0a.74.74,0,0,1-.43-.4L33.3,32.92a.73.73,0,0,1-.16-.69L37.32,16.6a.76.76,0,0,1,.73-.56h26.4a.76.76,0,0,1,.73.56l4.18,15.63a.76.76,0,0,1-.17.69L52,52.16a.76.76,0,0,1-.43.43A.86.86,0,0,1,51.28,52.64ZM34.69,32.22,51.25,50.73,67.81,32.22,63.88,17.54H38.62Z"></path><path class="cls-1" d="M51.28,59.32a.67.67,0,0,1-.28-.06h0a.8.8,0,0,1-.43-.4l-18.85-21a.77.77,0,0,1-.16-.74l1.63-4.94a.75.75,0,0,1,1.27-.27L51.25,50.73,68.08,31.92a.73.73,0,0,1,.71-.23.75.75,0,0,1,.56.5L71,37.13a.74.74,0,0,1-.15.74L52,58.84a.79.79,0,0,1-.43.43A.86.86,0,0,1,51.28,59.32ZM33.09,37.19,51.25,57.41,69.41,37.19l-1.08-3.3L51.81,52.36a.79.79,0,0,1-1.12,0L34.17,33.89Z"></path><path class="cls-1" d="M43,84.67a.77.77,0,0,1-.6-.3L25.24,61.56a.76.76,0,0,1-.13-.65l6.4-23.74a.76.76,0,0,1,1.29-.3L47.66,53.42a.73.73,0,0,1,.19.6L43.71,84a.75.75,0,0,1-.56.62A.58.58,0,0,1,43,84.67ZM26.66,61,42.47,82l3.84-27.85L32.6,38.9Z"></path><path class="cls-1" d="M59.53,84.67a.57.57,0,0,1-.18,0,.74.74,0,0,1-.56-.62L54.65,54a.76.76,0,0,1,.18-.6L69.7,36.87a.75.75,0,0,1,.73-.23.74.74,0,0,1,.55.53l6.4,23.74a.75.75,0,0,1-.12.65L60.13,84.37A.74.74,0,0,1,59.53,84.67ZM56.18,54.16,60,82,75.84,61l-6-22.05Z"></path><path class="cls-1" d="M51.27,78.9a.74.74,0,0,1-.53-.22L44.07,72a.78.78,0,0,1-.21-.63l2.5-17.57a.74.74,0,0,1,.53-.61.73.73,0,0,1,.77.22l2.63,2.92,0,0,.86,1.07a.7.7,0,0,1,.16.44L52,78.13a.75.75,0,0,1-.45.71A.8.8,0,0,1,51.27,78.9ZM45.4,71.22l5.06,5.06-.61-18.09-.69-.86-1.54-1.72Z"></path><path class="cls-1" d="M51.22,78.9a.72.72,0,0,1-.29-.06.72.72,0,0,1-.45-.71l.67-20.24a.77.77,0,0,1,.17-.44l.85-1.07,0,0,2.63-2.93a.76.76,0,0,1,1.31.39l2.5,17.57a.75.75,0,0,1-.22.63l-6.67,6.67A.71.71,0,0,1,51.22,78.9Zm1.42-20.71L52,76.28l5.06-5.06L54.88,55.61l-1.55,1.72Z"></path><path class="cls-1" d="M51.27,78.9h-.06a.76.76,0,0,1-.74-.75V76.71l-.63-18.77a.76.76,0,0,1,.45-.71.75.75,0,0,1,.82.14l.14.13.14-.13a.75.75,0,0,1,1.26.57L52,78.15a.75.75,0,0,1-.74.75Z"></path></g></svg></g></svg>